<svg id="Capa_1" data-name="Capa 1" xmlns="http://www.w3.org/2000/svg" viewBox="0 0 66 29"><defs><style>.cls-1{fill:red;}</style></defs><path class="cls-1" d="M38.44,15l-.89,1.56a13.28,13.28,0,0,0-1.64-.38,3.52,3.52,0,1,0,2.89,5.15c1.09-1.94,2.18-3.88,3.29-5.81A7.81,7.81,0,1,1,50,27.34a7.66,7.66,0,0,1-7.59-3,1.56,1.56,0,0,0-.16-.2s0,0-.1,0a7.87,7.87,0,0,1-13,0,7.79,7.79,0,0,1-6.86,3.42,7.44,7.44,0,0,1-5.17-2.28A7.78,7.78,0,0,1,17,14.3a7.68,7.68,0,0,1,9.59-1.36l-.9,1.53a18.71,18.71,0,0,0-1.84-.6,5.89,5.89,0,1,0-.68,11.65,5.68,5.68,0,0,0,4.65-3c1.06-1.83,2.07-3.69,3.09-5.54a5.46,5.46,0,0,1,7.32-2.19Zm10.14,1.16a3.53,3.53,0,1,0,3.64,3.44A3.54,3.54,0,0,0,48.58,16.12Zm6,3.51a5.89,5.89,0,0,0-11-3Q42,19.4,40.51,22.21a5.48,5.48,0,0,1-6.88,2.49,5.3,5.3,0,0,1-3.26-3.82c0-.16,0-.38-.31-.31s-.17.27-.12.41a10.39,10.39,0,0,0,.69,1.68,5.87,5.87,0,0,0,10.23-.2c1-1.81,2-3.64,3-5.44a5.24,5.24,0,0,1,4.63-2.82A5.45,5.45,0,1,1,47.64,25a5.35,5.35,0,0,1-4.27-4.15c0-.19-.1-.37-.32-.27a.38.38,0,0,0-.11.35,5.89,5.89,0,0,0,11.64-1.3Z"/><path class="cls-1" d="M20.77,22.61a3.45,3.45,0,0,0,3.3.29,3.25,3.25,0,0,0,1.63-1.45c1-1.83,2.08-3.66,3.09-5.5a7.84,7.84,0,0,1,10.49-3.24c.29.15.35.27.16.55s-.5.85-.73,1.24a15.15,15.15,0,0,0-1.79-.61,5.83,5.83,0,0,0-6.36,2.83c-1.06,1.85-2,3.73-3.12,5.57a5.22,5.22,0,0,1-5.37,2.77,5.16,5.16,0,0,1-4.5-3.5A5.38,5.38,0,0,1,19,15.62a5.47,5.47,0,0,1,6-.91l.39.22ZM19.4,20.93l2.91-4.71-.09-.08a3.48,3.48,0,0,0-2.59,1.72A3.34,3.34,0,0,0,19.4,20.93Z"/><path class="cls-1" d="M12.39,27.63a11.27,11.27,0,0,1-1.59-2.45A12.36,12.36,0,0,1,11.41,13c2.21-3.72,4.44-7.43,6.64-11.16a.81.81,0,0,1,.85-.48c.54,0,1.1,0,1.73,0L19.69,3C17.46,6.74,15.2,10.46,13,14.23a10.22,10.22,0,0,0,.28,11.2.45.45,0,0,1,0,.56C13,26.5,12.73,27,12.39,27.63Z"/><path class="cls-1" d="M25.73,8.4H22.48c-1,0-1.93,0-2.9,0a.63.63,0,0,0-.44.24c-1.41,2.37-2.85,4.72-4.2,7.13A7.76,7.76,0,0,0,14.67,23a.61.61,0,0,1,0,.65c-.31.5-.59,1-.93,1.61-.19-.3-.35-.54-.49-.8a9.88,9.88,0,0,1,.18-10c1.46-2.54,3-5,4.46-7.57a.56.56,0,0,1,.56-.31h5.75c.13,0,.31,0,.37.1C24.94,7.23,25.3,7.78,25.73,8.4Z"/><path class="cls-1" d="M21.75,4.44c.41,0,.72,0,1,0a.48.48,0,0,1,.32.12c.37.51.71,1,1.1,1.6H18.32c.29-.5.55-1,.82-1.43L21,1.67a.51.51,0,0,1,.31-.25c.07,0,.19.16.25.27.24.44.45.91.7,1.35a.54.54,0,0,1,0,.64C22.05,3.89,21.93,4.12,21.75,4.44Z"/></svg>