<svg id="Capa_1" data-name="Capa 1" xmlns="http://www.w3.org/2000/svg" xmlns:xlink="http://www.w3.org/1999/xlink" viewBox="0 0 66 29"><defs><style>.cls-1{fill:url(#Degradado_sin_nombre_11);}.cls-2{fill:#fff;}</style><radialGradient id="Degradado_sin_nombre_11" cx="10.98" cy="9.25" r="4.7" gradientUnits="userSpaceOnUse"><stop offset="0" stop-color="#fff"/><stop offset="0.33" stop-color="#ffa0a0"/><stop offset="0.66" stop-color="#ff4a4a"/><stop offset="0.89" stop-color="#ff1515"/><stop offset="1" stop-color="red"/></radialGradient></defs><path d="M27.69,11.25l-.52,1.49c-1,0-2,0-3,0a1.56,1.56,0,0,0-.94.46c-.29.3-.17.51.26.52s1.08,0,1.62,0c1.3,0,1.69.61,1.31,1.86a2.55,2.55,0,0,1-2.65,2H20.52l-.22,0a11.38,11.38,0,0,1,.44-1.2.56.56,0,0,1,.45-.23c.93,0,1.87,0,2.8,0,.6,0,.77-.21.84-.88-.2,0-.4,0-.61-.06-.55,0-1.11,0-1.66-.06a1.08,1.08,0,0,1-1.09-1.39,2.71,2.71,0,0,1,2.81-2.5Z"/><path d="M38.11,17.62a11.94,11.94,0,0,1,.44-1.24.6.6,0,0,1,.46-.22c.94,0,1.87,0,2.81,0,.6,0,.77-.22.82-.93H41.48c-.22,0-.43,0-.65,0-1.44-.07-1.89-.76-1.39-2.1a2.54,2.54,0,0,1,2.36-1.83c1-.06,2,0,3,0h.73c-.16.47-.28.89-.46,1.29,0,.11-.28.18-.43.19H42a1,1,0,0,0-1,.56c-.15.3-.06.44.27.44.56,0,1.11,0,1.67,0,1.3,0,1.7.61,1.31,1.86a2.54,2.54,0,0,1-2.65,2Z"/><path d="M35.13,13.93c-.37,1.06-.77,2.12-1.1,3.19-.13.4-.3.56-.71.51s-.65,0-1,0l2.2-6.36h1.79l.36,3.43.09,0,1.22-3.45h1.53c-.47,1.35-.92,2.67-1.37,4-.24.68-.47,1.36-.73,2a.59.59,0,0,1-.39.32c-.43,0-.86,0-1.34,0l-.41-3.69Z"/><path d="M57.29,17.61H55.65l-.4-3.67-.09,0-.54,1.54-.33,1c-.47,1.35-.47,1.35-2,1.16l1-2.9c.36-1,.71-2.06,1.09-3.09a.55.55,0,0,1,.38-.32c.48,0,1,0,1.49,0l.38,3.47h.1c.34-1,.7-2,1-3,.12-.37.29-.53.68-.49a8.85,8.85,0,0,0,1,0Z"/><path d="M65.18,11.26c-.38,1.42-.38,1.43-1.75,1.41-.87,0-1.71,0-2.2,1h3.14l-.51,1.46H61.11c-.29,0-.54,0-.56.39s.11.64.51.66c.68,0,1.37,0,2,0l.37,0L63,17.61c-.86,0-1.7,0-2.54,0a1.63,1.63,0,0,1-1.61-1.94,6.15,6.15,0,0,1,1.43-3.31,3.18,3.18,0,0,1,2.33-1.09C63.45,11.22,64.3,11.26,65.18,11.26Z"/><path d="M48.08,15.15h-1.4c-.23.66-.49,1.34-.7,2a.52.52,0,0,1-.65.45c-.33,0-.67,0-1.1,0l2.2-6.36H48l-.75,2.37a10.47,10.47,0,0,0,1.13,0,.5.5,0,0,0,.36-.29c.23-.56.43-1.14.61-1.72a.44.44,0,0,1,.53-.38c.36,0,.72,0,1.15,0-.07.23-.11.41-.17.59-.62,1.77-1.25,3.54-1.84,5.32a.58.58,0,0,1-.7.47c-.32,0-.64,0-1,0Z"/><path d="M30.08,11.25,28.89,15a1.29,1.29,0,0,0-.08.26c0,.33-.4.66,0,1a1.31,1.31,0,0,0,1.41-.16,3,3,0,0,0,.61-1c.42-1.1.8-2.22,1.17-3.34.11-.37.28-.53.68-.49a7.53,7.53,0,0,0,.95,0,.41.41,0,0,1,.06.11c-.54,1.52-1,3.06-1.62,4.55a3.33,3.33,0,0,1-4.34,1.57A1.17,1.17,0,0,1,27,16c.46-1.53,1-3,1.51-4.53a.44.44,0,0,1,.31-.22C29.24,11.23,29.63,11.25,30.08,11.25Z"/><path d="M49.75,17.63,52,11.28h1.64l-1,2.91c-.36,1-.71,2.07-1.09,3.09a.63.63,0,0,1-.43.33A11.16,11.16,0,0,1,49.75,17.63Z"/><circle class="cls-1" cx="8.88" cy="14.5" r="8.06"/><path class="cls-2" d="M5.26,10.28l1.4-2.22A.17.17,0,0,1,6.87,8l5.71,2.64a.15.15,0,0,1-.09.29l-7.1-.42A.15.15,0,0,1,5.26,10.28Z"/><path class="cls-2" d="M4.84,11.08A.16.16,0,0,1,5,11l9.66,2.42a.15.15,0,0,1,0,.3L3.22,13.9A23,23,0,0,1,4.84,11.08Z"/><path class="cls-2" d="M15.39,16.65,1.67,17a.16.16,0,0,1-.15-.23L3,14.59a.2.2,0,0,1,.18-.07l12.27,1.83A.15.15,0,0,1,15.39,16.65Z"/></svg>