<svg id="Capa_1" data-name="Capa 1" xmlns="http://www.w3.org/2000/svg" viewBox="0 0 66 29"><defs><style>.cls-1{fill:#80c41c;}.cls-2{fill:#fff;}</style></defs><rect class="cls-1" x="1.5" y="1.51" width="63" height="25.98"/><path class="cls-2" d="M5.52,14.52c0-2.25,0-4.51,0-6.76,0-1.33.49-2.06,1.83-2.07,3.89,0,7.77,0,11.66,0a1.67,1.67,0,0,1,1.88,1.88q0,4.65,0,9.29c0,1.37-.71,1.94-2,2s-2.59.06-3.89,0-1.55.44-1.57,1.6c0,2.82-.14,2.88-3,2.88-5.54,0-4.87.37-4.9-4.9C5.51,17.11,5.52,15.82,5.52,14.52ZM19,12.35c0-.9,0-1.8,0-2.7a2.47,2.47,0,0,0-2.74-2.51c-1.69,0-2.76.85-2.8,2.42-.05,1.74-.05,3.48,0,5.22a2.51,2.51,0,0,0,2.83,2.61A2.44,2.44,0,0,0,19,14.7C19.05,13.92,19,13.13,19,12.35Z"/><path class="cls-2" d="M21.71,14.56c0-2.37,0-4.74,0-7.1a1.49,1.49,0,0,1,1.59-1.74c1.46,0,2.93,0,4.39,0s1.95.83,1.94,2.17c0,3.67,0,7.33,0,11,0,2.28,1,3.17,3.24,2.95a2.41,2.41,0,0,0,2.37-2.72c0-3.78,0-7.55,0-11.33a3.89,3.89,0,0,1,.08-1.33,1.23,1.23,0,0,1,.82-.65c.2,0,.59.32.69.57A4.23,4.23,0,0,1,37,7.66c0,4.4,0,8.79,0,13.19,0,2.14-.35,2.45-2.47,2.46-3.55,0-7.1,0-10.65,0-1.55,0-2.28-.51-2.21-2.17C21.78,19,21.71,16.76,21.71,14.56Z"/><path class="cls-2" d="M50.05,23.26c-3.48,0-7,.06-10.45,0-1.23,0-1.57-.89-1.56-2,0-2.31,0-4.61,0-6.92s0-4.39,0-6.58c0-1.39.54-2.12,2-2.13s2.81,0,4.21,0c1.22,0,1.81.63,1.79,1.92,0,3.59,0,7.19,0,10.79,0,2.61.69,3.32,3.24,3.41l.84,0C50.62,21.88,51,23.25,50.05,23.26Z"/><path class="cls-2" d="M59.48,14.47c0,2.25,0,4.5,0,6.74,0,1.54-.67,2.15-2.14,2.11s-2.7,0-4,0a1.57,1.57,0,0,1-1.77-1.77c0-4.66,0-9.33,0-14a1.59,1.59,0,0,1,1.72-1.83c1.51,0,3,0,4.55,0a1.58,1.58,0,0,1,1.69,1.84C59.46,9.86,59.48,12.16,59.48,14.47Z"/></svg>