<svg id="Capa_1" data-name="Capa 1" xmlns="http://www.w3.org/2000/svg" viewBox="0 0 66 29"><defs><style>.cls-1{fill:#ffa101;}</style></defs><path class="cls-1" d="M36.14,7.79c-1,0-2,0-3,0a.94.94,0,0,0-.58.28c-1.2,1.27-2.37,2.55-3.56,3.82l-2.79,3L26,14.54c-.89-2.1-1.79-4.19-2.67-6.3a.64.64,0,0,0-.7-.46c-.92,0-1.84,0-2.76,0-.38,0-.56.1-.65.48Q18,13.16,16.74,18.05c-.1.38,0,.52.39.51.66,0,1.32,0,2,0,.36,0,.48-.14.56-.46.38-1.52.77-3,1.16-4.54.18-.66.35-1.33.54-2.05a1.82,1.82,0,0,1,.14.17c.78,1.83,1.58,3.65,2.35,5.47.59,1.38.58,1.4,2,1.38a1.14,1.14,0,0,0,.76-.32c1-1,1.88-2,2.81-3l3.23-3.44.05.06c-.52,2-1,4.1-1.57,6.14-.12.46,0,.56.44.55.62,0,1.25,0,1.87,0,.33,0,.45-.11.53-.42q1.27-4.9,2.58-9.8C36.71,7.92,36.57,7.78,36.14,7.79ZM20.63,12.94,20,15.55h0l-.07,0h-.05l.55-2.16c.2-.81.4-1.62.61-2.43l.07,0,.07,0h0Zm4.81,1.32h0c-.1-.22-.19-.43-.29-.64-.22-.52-.45-1-.67-1.54-.11-.28-.23-.55-.35-.83-.35-.82-.71-1.65-1-2.48-.16-.42-.37-.65-.8-.61H22l-.18,0a4.42,4.42,0,0,1,.72-.09.62.62,0,0,1,.25,0l.09.07h0a2.76,2.76,0,0,1,.39.74l1.81,4.33c.11.25.21.5.31.75A.25.25,0,0,1,25.44,14.26Zm3,1.57h0l-.09-.09,4.06-4.3h0l.12.1Zm5.8-7.67V8.1h1.68v.06H34.25Zm.3,7.38h0l-.12,0,1.48-6.39h.14Z"/><path class="cls-1" d="M17.6,7.7H6c-1,0-1,0-1.23.92-.86,3.09-1.71,6.17-2.57,9.25-.15.53-.12.58.46.58H14.75c.36,0,.54-.09.63-.44.12-.53.27-1.05.42-1.57s.13-.55-.44-.55H5.54a12,12,0,0,0,.34-1.22c.06-.46.3-.52.7-.52,3,0,6,0,9,0,.16,0,.44-.06.47-.15.24-.76.45-1.53.69-2.39h-10l.38-1.37H17c.34,0,.5-.09.58-.43.12-.52.28-1,.43-1.56S18.21,7.7,17.6,7.7ZM8.15,16.19h6.24v.06H8.15Zm1.46-4.26h5.6V12H9.61v-.07Zm7-3.93h0v.07H9.42V8Z"/><path class="cls-1" d="M61.53,18.35c-1.49-1.75-3-3.5-4.5-5.27l.46-.33L63.58,8.4A1.84,1.84,0,0,0,63.87,8a1.56,1.56,0,0,0-.46-.18c-1.09,0-2.17,0-3.26,0a1,1,0,0,0-.57.21c-1.13.8-2.24,1.62-3.35,2.43L55,11.35c-.92-1.1-1.8-2.16-2.7-3.2a1,1,0,0,0-.64-.35c-1,0-2,0-3,0a1.41,1.41,0,0,0-.44.14,1.7,1.7,0,0,0,.18.46c.63.76,1.28,1.5,1.92,2.25l1.93,2.24c-1.4,1-2.74,2-4.08,3-.11.08-.29.27-.26.35.27.79.58,1.58.91,2.45l5.41-4,.13.07c1.75,2.07,3.51,4.13,5.25,6.21a.93.93,0,0,0,.8.38c.94,0,1.87,0,2.81,0a1.48,1.48,0,0,0,.47-.17,1.77,1.77,0,0,0-.18-.42C62.85,19.9,62.19,19.13,61.53,18.35ZM60.12,8.08h2.62v.08H60.12Zm2.67.24,0,0h0l.1.13L59,11.27v0h0l-.1-.11Zm-12,8.46v0h0l-.08-.11,3-2.24,0,0h0l.1.13Zm3.57-5.49,0,0h0c-.66-.78-1.36-1.54-2-2.36a2.47,2.47,0,0,0-.24-.29,1.4,1.4,0,0,0-1.4-.42l.17,0-.19,0a1.32,1.32,0,0,1,1.53.31,2.54,2.54,0,0,1,.2.24c.61.86,1.34,1.64,2,2.46Zm8.35,9.59H60.28V20.8h2.41v.08Zm.24-.43h0l-.1.09h0l-1.14-1.33-2-2.33,0,0,.08-.07h0l3.13,3.68Z"/><path class="cls-1" d="M48.15,18.41C47,15,45.8,11.58,44.64,8.17a.49.49,0,0,0-.53-.39c-.76,0-1.52,0-2.27,0a.87.87,0,0,0-.58.28c-1.88,2.16-3.76,4.35-5.63,6.53a.84.84,0,0,0-.19.33c-.33,1.19-.65,2.37-1,3.56a1.55,1.55,0,0,0,1.88-.65,4.39,4.39,0,0,1,.8-.93,1.06,1.06,0,0,1,.66-.3c2,0,4.11,0,6.16,0,.28,0,.42.06.5.34a9.27,9.27,0,0,0,.44,1.25.65.65,0,0,0,.44.34c.92,0,1.84,0,2.78,0C48.14,18.47,48.15,18.44,48.15,18.41Zm-11.93-.86-.11-.07.94-1.14.12.1ZM42.42,10l.13.11-2,2.27-.09-.07ZM40.5,14.3v-.07h2.83v.07Zm-.78-.39,2.67-3.1,1.07,3.1Zm7,1.76c-.71-2.05-1.42-4.09-2.12-6.14a5.53,5.53,0,0,1-.22-.65c-.1-.44-.26-.81-.78-.74.63-.11.65-.07.86.53q1.18,3.47,2.39,6.93Z"/></svg>